<svg xmlns="http://www.w3.org/2000/svg" viewBox="0 0 171.86 64.41"><defs><style>.cls-1{fill:#27aae1;}.cls-2{fill:#1b75bc;}.cls-3,.cls-4{fill:#0083ca;}.cls-4{opacity:0.8;}.cls-5{fill:#0c153a;}.cls-6{font-size:10px;fill:#231f20;font-family:Microsoft-Yi-Baiti, Microsoft Yi Baiti;font-style:italic;letter-spacing:0.28em;}</style></defs><title>Asset 7</title><g id="Layer_2" data-name="Layer 2"><g id="Layer_1-2" data-name="Layer 1"><path class="cls-1" d="M101.53,28.57a2.87,2.87,0,1,0,3.34-4.66"/><path class="cls-2" d="M104.87,23.91c-.74-.53-2.09.08-3,1.36s-1.07,2.76-.32,3.3,2.09-.08,3-1.37S105.61,24.44,104.87,23.91Z"/><path class="cls-3" d="M27.91,55.07A27.54,27.54,0,0,0,27.66,0"/><path class="cls-4" d="M24.93,14.56a24.93,24.93,0,1,0,0,49.85"/><path class="cls-5" d="M62.32,27.84v3.67h5.6V27.84a1.75,1.75,0,0,1,.35-1.18,1.21,1.21,0,0,1,.93-.39,1.22,1.22,0,0,1,1,.39,1.64,1.64,0,0,1,.37,1.18v10.1a1.71,1.71,0,0,1-.37,1.19,1.25,1.25,0,0,1-1,.39,1.16,1.16,0,0,1-.93-.4,1.75,1.75,0,0,1-.35-1.18V33.63h-5.6v4.31A1.71,1.71,0,0,1,62,39.13a1.24,1.24,0,0,1-.94.39,1.16,1.16,0,0,1-.94-.4,1.75,1.75,0,0,1-.35-1.18V27.84a1.75,1.75,0,0,1,.35-1.18,1.19,1.19,0,0,1,.94-.39,1.21,1.21,0,0,1,.94.39A1.64,1.64,0,0,1,62.32,27.84Z"/><path class="cls-5" d="M80.8,35.26H76.13a3.24,3.24,0,0,0,.33,1.43,2.26,2.26,0,0,0,.85.93,2.23,2.23,0,0,0,1.17.32,2.78,2.78,0,0,0,.78-.1,2.52,2.52,0,0,0,.69-.32,5.65,5.65,0,0,0,.61-.45c.18-.17.43-.39.72-.67a.84.84,0,0,1,.53-.16.88.88,0,0,1,.59.2.75.75,0,0,1,.23.57,1.65,1.65,0,0,1-.25.76,3.1,3.1,0,0,1-.77.83,4.65,4.65,0,0,1-1.28.66,5.7,5.7,0,0,1-1.78.26A4.77,4.77,0,0,1,75,38.21a4.88,4.88,0,0,1-1.27-3.56,5.92,5.92,0,0,1,.31-2,4.37,4.37,0,0,1,.92-1.55,4,4,0,0,1,1.48-1,5.38,5.38,0,0,1,2-.35,4.69,4.69,0,0,1,2.4.59,3.8,3.8,0,0,1,1.5,1.53,4,4,0,0,1,.5,1.9c0,.6-.17,1-.52,1.17A3.14,3.14,0,0,1,80.8,35.26ZM76.13,33.9h4.33a2.89,2.89,0,0,0-.66-1.83,2,2,0,0,0-1.51-.61,1.91,1.91,0,0,0-1.46.62A3.13,3.13,0,0,0,76.13,33.9Z"/><path class="cls-5" d="M93.72,34.84V38a1.64,1.64,0,0,1-.34,1.13,1.16,1.16,0,0,1-.9.37,1.12,1.12,0,0,1-.88-.37A1.64,1.64,0,0,1,91.26,38v-3.8a12.45,12.45,0,0,0-.06-1.4,1.49,1.49,0,0,0-.33-.82,1.08,1.08,0,0,0-.86-.32,1.53,1.53,0,0,0-1.54.8,5.67,5.67,0,0,0-.37,2.31V38a1.61,1.61,0,0,1-.34,1.12,1.22,1.22,0,0,1-1.77,0A1.62,1.62,0,0,1,85.64,38V31.19a1.52,1.52,0,0,1,.31-1,1.06,1.06,0,0,1,.82-.35,1.11,1.11,0,0,1,.82.33,1.21,1.21,0,0,1,.32.9v.23a4.13,4.13,0,0,1,1.33-1.09,3.46,3.46,0,0,1,1.58-.35,3.1,3.1,0,0,1,1.54.35,2.74,2.74,0,0,1,1.07,1.09,4.17,4.17,0,0,1,1.29-1.09,3.28,3.28,0,0,1,1.53-.35,3.43,3.43,0,0,1,1.69.38A2.45,2.45,0,0,1,99,31.32a5.11,5.11,0,0,1,.31,2V38A1.64,1.64,0,0,1,99,39.15a1.24,1.24,0,0,1-1.78,0A1.62,1.62,0,0,1,96.83,38V34a10.1,10.1,0,0,0-.06-1.24,1.49,1.49,0,0,0-.36-.78,1.11,1.11,0,0,0-.87-.31,1.57,1.57,0,0,0-.9.28,2,2,0,0,0-.66.75A6.07,6.07,0,0,0,93.72,34.84Z"/><path class="cls-5" d="M103.8,29.82a1.1,1.1,0,0,0-.85.36,1.51,1.51,0,0,0-.33,1.06v6.83a1.6,1.6,0,0,0,.33,1.08,1.07,1.07,0,0,0,.85.37,1.13,1.13,0,0,0,.87-.37,1.51,1.51,0,0,0,.34-1.08v-6.9a1.37,1.37,0,0,0-.34-1A1.15,1.15,0,0,0,103.8,29.82Z"/><path class="cls-5" d="M116.16,36.4a2.77,2.77,0,0,1-1.9,2.76,6.42,6.42,0,0,1-2.28.36,5.64,5.64,0,0,1-2.21-.39,3.13,3.13,0,0,1-1.35-1A2,2,0,0,1,108,37a.89.89,0,0,1,.28-.67A1,1,0,0,1,109,36a.81.81,0,0,1,.57.18,1.86,1.86,0,0,1,.39.52A2.29,2.29,0,0,0,112.2,38a2.05,2.05,0,0,0,1.18-.31.93.93,0,0,0,.46-.73,1,1,0,0,0-.48-.92,5.83,5.83,0,0,0-1.57-.55,13.25,13.25,0,0,1-2-.65,3.35,3.35,0,0,1-1.23-.88,2,2,0,0,1-.47-1.36,2.4,2.4,0,0,1,.43-1.35,2.91,2.91,0,0,1,1.27-1,4.84,4.84,0,0,1,2-.38,6.61,6.61,0,0,1,1.67.19,4.11,4.11,0,0,1,1.23.52,2.45,2.45,0,0,1,.75.71,1.45,1.45,0,0,1,.26.77.88.88,0,0,1-.28.68,1.1,1.1,0,0,1-.78.26,1,1,0,0,1-.62-.21,3.7,3.7,0,0,1-.59-.63,2.41,2.41,0,0,0-.64-.56,2,2,0,0,0-1-.21,1.87,1.87,0,0,0-1.07.28.79.79,0,0,0-.43.68.74.74,0,0,0,.31.62,2.69,2.69,0,0,0,.85.4c.36.1.85.23,1.47.38a7.81,7.81,0,0,1,1.81.65,3,3,0,0,1,1.07.88A2,2,0,0,1,116.16,36.4Z"/><path class="cls-5" d="M121.39,31.16v.28a4.69,4.69,0,0,1,1.39-1.22,3.58,3.58,0,0,1,1.65-.38,3.9,3.9,0,0,1,2,.56,4,4,0,0,1,1.46,1.67,5.74,5.74,0,0,1,.54,2.58,6.55,6.55,0,0,1-.31,2,4.56,4.56,0,0,1-.85,1.54,3.76,3.76,0,0,1-2.87,1.3,3.37,3.37,0,0,1-1.72-.41,4.91,4.91,0,0,1-1.32-1.21v3.59c0,1-.39,1.57-1.15,1.57a.91.91,0,0,1-.89-.4,2.55,2.55,0,0,1-.22-1.19V31.17a1.47,1.47,0,0,1,.3-1,1,1,0,0,1,.81-.34,1.09,1.09,0,0,1,.83.34A1.43,1.43,0,0,1,121.39,31.16Zm4.67,3.47a4.06,4.06,0,0,0-.29-1.63,2.35,2.35,0,0,0-.8-1,1.9,1.9,0,0,0-1.13-.36,2.11,2.11,0,0,0-1.66.78,3.4,3.4,0,0,0-.68,2.29,3.33,3.33,0,0,0,.67,2.22,2.14,2.14,0,0,0,1.67.79,1.89,1.89,0,0,0,1.1-.35,2.4,2.4,0,0,0,.82-1A4.19,4.19,0,0,0,126.06,34.63Z"/><path class="cls-5" d="M133.71,31.26a4.8,4.8,0,0,1,.89-.83,3.22,3.22,0,0,1,1-.46,4.11,4.11,0,0,1,1.13-.15,3.33,3.33,0,0,1,1.61.38,2.78,2.78,0,0,1,1.11,1.12,2.82,2.82,0,0,1,.34,1,7.33,7.33,0,0,1,.09,1.22v4.57a1.55,1.55,0,0,1-.33,1.08,1.1,1.1,0,0,1-.87.37c-.79,0-1.18-.48-1.18-1.45V34a3.66,3.66,0,0,0-.34-1.76,1.35,1.35,0,0,0-1.29-.62,1.88,1.88,0,0,0-1.15.37,2.19,2.19,0,0,0-.77,1,6.27,6.27,0,0,0-.19,1.89v3.16a1.64,1.64,0,0,1-.32,1.08,1.1,1.1,0,0,1-.89.37c-.78,0-1.18-.48-1.18-1.45,0,0,.11-11.2.31-11.44a2.2,2.2,0,0,1,1.76,0A37,37,0,0,1,133.71,31.26Z"/><path class="cls-5" d="M149.85,35.26h-4.67a3.24,3.24,0,0,0,.33,1.43,2.26,2.26,0,0,0,.85.93,2.23,2.23,0,0,0,1.17.32,2.78,2.78,0,0,0,.78-.1,2.52,2.52,0,0,0,.69-.32,5.65,5.65,0,0,0,.61-.45c.18-.17.43-.39.72-.67a.84.84,0,0,1,.53-.16.88.88,0,0,1,.59.2.75.75,0,0,1,.23.57,1.65,1.65,0,0,1-.25.76,3.1,3.1,0,0,1-.77.83,4.65,4.65,0,0,1-1.28.66,5.7,5.7,0,0,1-1.78.26A4.77,4.77,0,0,1,144,38.21a4.88,4.88,0,0,1-1.27-3.56,5.92,5.92,0,0,1,.31-2,4.37,4.37,0,0,1,.92-1.55,4,4,0,0,1,1.48-1,5.38,5.38,0,0,1,2-.35,4.69,4.69,0,0,1,2.4.59,3.8,3.8,0,0,1,1.5,1.53,4,4,0,0,1,.5,1.9c0,.6-.17,1-.52,1.17A3.14,3.14,0,0,1,149.85,35.26Zm-4.67-1.36h4.33a2.89,2.89,0,0,0-.66-1.83,2,2,0,0,0-1.51-.61,1.91,1.91,0,0,0-1.46.62A3.13,3.13,0,0,0,145.18,33.9Z"/><path class="cls-5" d="M157.2,36.08v2a1.53,1.53,0,0,1-.34,1.09,1.15,1.15,0,0,1-.87.36,1.07,1.07,0,0,1-.84-.37,1.55,1.55,0,0,1-.34-1.08V31.43c0-1.08.39-1.61,1.17-1.61a1,1,0,0,1,.85.37,2.1,2.1,0,0,1,.29,1.11,4.62,4.62,0,0,1,.88-1.11,1.81,1.81,0,0,1,1.2-.37,3.07,3.07,0,0,1,1.46.37,1.15,1.15,0,0,1,.71,1,1,1,0,0,1-1,1,3.15,3.15,0,0,1-.64-.17,3.17,3.17,0,0,0-.88-.16,1.27,1.27,0,0,0-.86.28,1.79,1.79,0,0,0-.52.82,6,6,0,0,0-.25,1.28C157.22,34.75,157.2,35.36,157.2,36.08Z"/><path class="cls-5" d="M169.89,35.26h-4.67a3.24,3.24,0,0,0,.33,1.43,2.26,2.26,0,0,0,.85.93,2.23,2.23,0,0,0,1.17.32,2.78,2.78,0,0,0,.78-.1,2.47,2.47,0,0,0,.68-.32,5.79,5.79,0,0,0,.62-.45l.72-.67a.82.82,0,0,1,.53-.16.88.88,0,0,1,.59.2.75.75,0,0,1,.23.57,1.56,1.56,0,0,1-.26.76,3.05,3.05,0,0,1-.76.83,4.58,4.58,0,0,1-1.29.66,5.59,5.59,0,0,1-1.77.26,4.77,4.77,0,0,1-3.58-1.31,4.88,4.88,0,0,1-1.28-3.56,5.92,5.92,0,0,1,.32-2,4.23,4.23,0,0,1,.92-1.55,3.94,3.94,0,0,1,1.48-1,5.34,5.34,0,0,1,2-.35,4.69,4.69,0,0,1,2.4.59,3.8,3.8,0,0,1,1.5,1.53,4,4,0,0,1,.5,1.9c0,.6-.17,1-.52,1.17A3.17,3.17,0,0,1,169.89,35.26Zm-4.67-1.36h4.33a2.89,2.89,0,0,0-.66-1.83,2,2,0,0,0-1.51-.61,1.91,1.91,0,0,0-1.46.62A3.07,3.07,0,0,0,165.22,33.9Z"/><text/><text class="cls-6" transform="translate(8.94 57.97)"> </text></g></g></svg>